<svg clip-rule="evenodd" fill-rule="evenodd" stroke-linejoin="round" stroke-miterlimit="2" viewBox="0 0 560 300" xmlns="http://www.w3.org/2000/svg"><g transform="matrix(.697198 0 0 .605656 -2072.09 -967.346)"><path d="m2972.02 1597.18h803.216v495.331h-803.216z" fill="none"/><g transform="matrix(.238725352 -.09197698619 .07990065801 .2748076941 2976.334521 1774.190637)"><path d="m46.513 362.1c14.206-177.255 162.579-316.7 343.487-316.7s329.281 139.445 343.487 316.7h-178.609c-13.296-79.019-82.103-139.3-164.878-139.3s-151.582 60.281-164.878 139.3z" fill="#ff1b1c"/><path d="m733.495 417.8c-14.158 177.303-162.553 316.8-343.495 316.8s-329.337-139.497-343.495-316.8h178.6c13.255 79.068 82.085 139.4 164.895 139.4s151.64-60.332 164.895-139.4z" fill="#fff"/><path d="m500.58 417.8c-12.423 49.5-57.25 86.2-110.58 86.2s-98.157-36.7-110.58-86.2c-2.234-8.899-3.42-18.212-3.42-27.8 0-9.624 1.195-18.971 3.445-27.9 12.458-49.45 57.26-86.1 110.555-86.1s98.097 36.65 110.555 86.1c2.25 8.929 3.445 18.276 3.445 27.9 0 9.588-1.186 18.901-3.42 27.8z" fill="#fff"/><path d="m390 0c215.247 0 390 174.753 390 390s-174.753 390-390 390-390-174.753-390-390 174.753-390 390-390zm-164.895 417.8h-178.6c14.158 177.303 162.553 316.8 343.495 316.8s329.337-139.497 343.495-316.8h-178.6c-13.255 79.068-82.085 139.4-164.895 139.4s-151.64-60.332-164.895-139.4zm329.773-55.7h178.609c-14.206-177.255-162.579-316.7-343.487-316.7s-329.281 139.445-343.487 316.7h178.609c13.296-79.019 82.103-139.3 164.878-139.3s151.582 60.281 164.878 139.3zm-54.298 55.7c2.234-8.899 3.42-18.212 3.42-27.8 0-9.624-1.195-18.971-3.445-27.9-12.458-49.45-57.26-86.1-110.555-86.1s-98.097 36.65-110.555 86.1c-2.25 8.929-3.445 18.276-3.445 27.9 0 9.588 1.186 18.901 3.42 27.8 12.423 49.5 57.25 86.2 110.58 86.2s98.157-36.7 110.58-86.2z" transform="matrix(.997646 -.00457909 .00457909 .997646 -.867789 2.70383)"/></g><path d="m12.95 2.688 1.912 5.813c.099.301.336.538.637.637l5.813 1.912c.411.135.688.518.688.95s-.277.815-.688.95l-5.813 1.912c-.301.099-.538.336-.637.637l-1.912 5.813c-.135.411-.518.688-.95.688s-.815-.277-.95-.688l-1.912-5.813c-.099-.301-.336-.538-.637-.637l-5.813-1.912c-.411-.135-.688-.518-.688-.95s.277-.815.688-.95l5.813-1.912c.301-.099.538-.336.637-.637l1.912-5.813c.135-.411.518-.688.95-.688s.815.277.95.688z" fill="#ffcf00" stroke="#000" stroke-width="1.65" transform="matrix(6.18879929924 1.15686977933 -.93949930401 6.66000350143 3077.86548583197 1641.6672712772)"/><path d="m12.95 2.688 1.912 5.813c.099.301.336.538.637.637l5.813 1.912c.411.135.688.518.688.95s-.277.815-.688.95l-5.813 1.912c-.301.099-.538.336-.637.637l-1.912 5.813c-.135.411-.518.688-.95.688s-.815-.277-.95-.688l-1.912-5.813c-.099-.301-.336-.538-.637-.637l-5.813-1.912c-.411-.135-.688-.518-.688-.95s.277-.815.688-.95l5.813-1.912c.301-.099.538-.336.637-.637l1.912-5.813c.135-.411.518-.688.95-.688s.815.277.95.688z" fill="#ffcf00" stroke="#000" stroke-width="2.45" transform="matrix(4.15366008752 .94879377505 -.77052059688 4.46992133572 3171.22868555613 1605.72351594824)"/><path d="m759.644 471.48c5.436.553 9.524 2.265 12.968 4.167 5.107 2.822 9.859 7 13.843 14.968 5.957 11.915 15.907 66.267 18.744 78.892 2.924 13.014.831 23.508-12.56 34.533-6.362 5.239-19.961 11.946-47.707 21.648-12.215 4.271-64.968 16.093-77.407 17.206-11.777 1.053-39.013.966-49.277.845-22.892-.268-76.79-5.542-86.772-6.169-36.008-2.259-109.407-4.331-109.407-4.331-15.812 1.419-64.372 5.5-81.483 8.973-14.075 2.857-47.914 8.765-59.831 12.16-5.812 1.656-35.412 9.097-56.682 14.523-15.141 3.862-24.929 5.991-30.574 6.133-12.549.317-20.489-3.997-26.021-9.093-5.409-4.984-10.07-12.168-9.808-23.541.12-5.19 2.358-14.191 6.405-28.13 9.224-31.771 15.136-50.613 21.164-62.575 6.49-12.879 13.752-20.403 22.627-26.134 4.76-3.074 10.192-5.569 16.854-7.918-6.681-12.071-7.669-27.178.107-43.875 4.825-10.361 12.527-17.754 21.114-22.61-4.736-13.123-4.194-26.641.609-39.116 7.477-19.422 26.56-37.503 57.093-45.711 19.611-5.273 36.497-2.753 48.864 3.57 2.546-2.075 5.189-3.719 7.9-5.098 7.093-3.609 15.533-5.439 27.336-5.533 7.964-.062 14.226.931 19.167 2.477 1.827-1.384 3.713-2.507 5.633-3.496 4.194-2.161 9.332-3.466 17.654-4.705 11.374-1.693 25.027-1.361 31.351-.11 2.887.57 5.409 1.374 7.596 2.292 5.703-2.704 12.397-4.842 21.886-6.61 31.821-5.93 58.976 1.776 76.058 17.825.225-.089.452-.177.679-.264 6.961-2.66 16.103-3.679 29.602-4.114 20.611-.664 36.166-.158 42.615.83 2.105.323 4.011.756 5.73 1.257 7.682-2.995 26.659-8.349 35.11-9.572 44.164-6.396 71.548 9.565 82.335 29.935 9.141 17.261 8.314 42.902-12.658 70.01 4.543 6.654 7.499 12.073 9.143 16.461zm-457.988-90.121c-40.686 10.879-53.811 44.78-26.731 69.052 4.509 4.041 10.315 9.248 12.902 11.573 5.341 4.797 5.409 6.193.656 13.465-6.554 10.029-24.068 10.086-20.238.066 6.958-18.2-20.123-17.404-28.667.842-16.552 35.35 39.307 49.527 71.342 18.107 23.058-22.615 20.329-46.659-7.881-69.422-9.824-7.927-10.648-13.744-2.537-17.916 6.476-3.331 10.074-1.614 11.139 5.317 2.01 13.083 22.548 9.05 26.418-5.188 5.512-20.283-11.673-32.508-36.403-25.896zm-2.679 138.321c-31.987 8.412-27.994 4.526-36.372 35.404-3.216 11.851-6.935 25.502-8.264 30.334-9.929 36.089-10.16 37.699-5.771 40.141 4.095 2.277 19.11-1.976 20.685-5.86 1.694-4.175 11.533-37.448 11.533-39.002 0-1.918.73-2.22 9.963-4.116 15.042-3.088 18.638-6.349 17.896-16.222-.437-5.806-2.266-6.711-10.243-5.073-7.389 1.518-10.443-9.697-3.163-11.614.911-.241 6.971-1.71 13.465-3.267 13.3-3.187 13.071-2.967 15.786-15.195 2.542-11.451-.498-12.109-25.515-5.53zm390.804-149.151c-7.259 1.045-24.738 5.765-28.741 7.76-4.818 2.402-4.184 17.1.9 20.863 2.419 1.789 8.601 1.111 15.888-1.743 22.246-8.713 35.449 1.594 28.4 22.168-4.089 11.935-20.6 22.628-18.067 11.701 3.786-16.334-1.912-21.36-19.149-16.896-14.514 3.761-13.843 2.127-24.421 59.443-5.305 28.745-2.618 32.018 22.067 26.891 7.444-1.545 7.353-1.37 10.566-20.235 2.791-16.373 3.125-16.997 9.103-17.022 4.55-.018 6.577 2.136 16.614 17.658 7.655 11.836 7.399 11.743 20.749 7.55 19.474-6.119 19.616-12.368.83-36.554l-5.991-7.715 6.78-7.148c38.059-40.123 19.663-74.67-35.528-66.721zm-195.921-6.384c-7.815 1.448-12.789 3.053-17.15 5.535l-4.158 2.365v9.486c0 12.964 1.068 14.086 9.724 10.222 25.617-11.433 47.277 2.227 35.145 23.318-9.787 17.013-27 22.407-20.443 3.649 3.78-10.816-8.882-13.921-24.63-6.908-7.571 3.372-6.777 1.45-14.266 34.576-2.57 11.37-5.862 24.75-7.314 29.734-4.485 15.387-4.035 15.817 16.333 15.574 8.979-.106 14.84-.595 15.26-1.271.375-.604 2.53-8.318 4.787-17.142l4.106-16.043 3.642-.509c40.306-5.626 60.322-23.699 60.686-54.791.32-27.373-27.16-44.201-61.722-37.795zm-64.441 4.78c-12.478 1.846-10.631-1.691-21.183 40.565-12.823 51.344-13.873 53.578-25.712 54.642-6.058.545-7.135.363-9.037-1.529l-2.159-2.147 2.062-7.034c1.134-3.869 3.87-13.779 6.079-22.022 2.21-8.244 6.168-22.785 8.795-32.313 6.594-23.918 6.57-23.991-7.696-23.879-19.354.152-21.663 3.606-34.772 52.057-8.425 31.135-9.265 35.351-8.497 42.658 4.696 44.682 77.937 34.506 96.614-13.424 4.498-11.545 20.378-85.591 18.692-87.163-1.731-1.611-13.649-1.823-23.186-.411zm264.32 142.105c-10.53 3-9.517.68-14.937 34.223-2.278 14.108-4.542 26.708-5.028 27.999-.908 2.403-6.172-12.627-14.747-42.102-4.343-14.932-3.742-14.358-14.281-13.618-14.05.986-13.866-.583-4.276 36.359 16.265 62.652 14.621 59.194 27.603 58.039 22.989-2.046 24.066-4.036 33.701-62.174 6.353-38.334 5.474-42.573-8.035-38.726zm-94.464-132.433c-30.075.963-28.848-.977-43.153 68.308-2.289 11.086-5.307 25.123-6.708 31.194-5.396 23.388-6.877 22.284 31.645 23.591l30.552 1.036 4.414-3.598c19.722-16.071 14.034-29.616-12.297-29.276-19.301.249-17.767 1.246-15.538-10.105l1.811-9.224 12.473-.652c21.811-1.139 27.543-4.943 27.543-18.278 0-7.009-1.596-7.609-18.047-6.788-16.187.807-15.109 1.636-12.267-9.427l1.859-7.236 6.172-.753c3.396-.413 10.574-.674 15.953-.579l9.78.174 2.97-3.538c4.779-5.694 7.098-20.722 3.638-23.579-1.83-1.511-17.791-2.008-40.8-1.27zm142.307 118.427c-34.009 11.267-31.717 6.889-26.31 50.254 6.998 56.125 6.469 55.104 25.181 48.597 38.238-13.297 45.195-17.467 43.28-25.941-3.004-13.298-5.177-13.78-24.727-5.495-12.473 5.285-13.269 5.091-14.29-3.476l-.62-5.207 10.986-3.893c13.258-4.697 14.739-6.056 14.425-13.223-.47-10.744-3.442-11.918-17.596-6.95-10.319 3.622-9.604 3.856-10.355-3.382l-.586-5.644 8.185-3.367c4.502-1.852 9.627-3.956 11.389-4.677 7.298-2.983 9.954-12.077 5.889-20.163-2.462-4.896-2.264-4.916-24.851 2.567zm-137.12 22.993c-1.667 1.658-1.743 4.599-1.051 40.572 1.056 54.785.667 53.29 13.605 52.201 14.757-1.243 13.971.369 12.841-26.338-.492-11.655-1.264-31.029-1.715-43.055-.585-15.626-1.212-22.335-2.197-23.516-2.069-2.479-18.96-2.373-21.483.136zm-188.036-15.029c-21.716 1.134-20.51.257-23.975 17.442-2.3 11.412-11.134 61.447-12.617 71.466-.484 3.278-.112 4.278 2.603 6.978 3.758 3.736 1.567 3.66 30.505 1.077l23.232-2.073 2.785-3.029c11.495-12.507 3.765-22.717-15.346-20.266-7.239.928-13.378 1.472-13.643 1.208-.396-.394.668-13.858 1.12-14.178.077-.054 6.082-.677 13.343-1.385 15.961-1.554 16.419-1.849 16.419-10.599 0-11.362-1.382-12.082-17.67-9.197-8.154 1.446-11.088-5.659-5.644-13.665.118-.172 6.204-.975 13.527-1.781 16.026-1.766 16.732-2.25 18.193-12.457 1.666-11.637 2.526-11.387-32.832-9.541zm-182.363 28.346c-33.244 9.225-34.997 11.859-56.182 84.43-9.3 31.86-10.561 30.705 23.955 21.948 33.799-8.575 31.002-7.578 33.122-11.804 8.562-17.064 4.588-20.848-17.501-16.661-12.857 2.436-11.993 2.89-9.345-4.909 2.701-7.953 2.213-7.609 17.07-12.043 14.155-4.224 16.2-5.797 18.173-13.981 2.176-9.018.066-9.861-14.795-5.908-10.602 2.82-10.527 2.911-6.157-7.492l2.779-6.616 14.02-3.427c15.333-3.748 15.804-4.063 18.232-12.194 4.749-15.905.5-17.967-23.371-11.343zm243.858-28.035c-27.927 10.593-35.947 61.477-13.587 86.21 19.417 21.477 58.49 11.404 59.053-15.225.222-10.531-15.294-13.816-20.189-4.274-8.689 16.939-22.561 8.434-24.496-15.018-1.749-21.217 4.575-33.167 16.316-30.832 3.713.738 12.353 8.402 12.353 10.956 0 4.763 11.638 6.751 15.725 2.687 15.208-15.125-21.782-43.378-45.175-34.504zm-116.022 3.791c-31.624 3.035-29.599 1.392-36.746 29.812-17.641 70.155-17.692 76.311-.601 72.86 11.506-2.322 12.351-2.834 12.413-7.515.028-2.112 2.064-11.748 4.523-21.413l4.471-17.573 10.808-1.195c5.946-.657 11.183-1.238 11.641-1.292 1.55-.181 3.845-7.24 3.845-11.824 0-6.511-1.379-7.278-11.919-6.625-10.302.64-9.949.832-8.606-4.697 1.54-6.345 2.118-6.631 16.72-8.262 14.969-1.672 16.772-2.614 18.404-9.622 1.452-6.232-1.114-15.443-4.106-14.741-.34.081-9.722 1.019-20.847 2.087zm168.689 5.595c-6.766 6.73-1.7 18.52 8.422 19.598 8.674.923 8.667.913 9.955 16.077 1.639 19.305 5.141 53.876 5.715 56.438.669 2.975 3.518 3.759 13.2 3.638 14.118-.176 13.392 2.927 9.814-41.903-2.651-33.224-3.351-30.654 8.341-30.68 9.823-.022 11.762-1.863 11.762-11.172 0-8.9-.62-9.2-22.866-11.065-10.576-.887-23.204-2.053-28.063-2.593-12.502-1.386-13.296-1.305-16.28 1.662z" transform="matrix(.9894408238 .03770618073 -.03349499239 1.16470282095 2966.179425 1270.2354884)"/><g fill="#fff" transform="matrix(.98944041758 .03770611225 -.03349502893 1.16470395486 2966.17828931854 1270.22288300248)"><path d="m361.899 509.09c-31.624 3.035-29.599 1.392-36.746 29.812-17.641 70.155-17.692 76.311-.601 72.86 11.506-2.322 12.351-2.834 12.413-7.515.028-2.112 2.064-11.748 4.523-21.413l4.471-17.573 10.808-1.195c5.946-.657 11.183-1.238 11.641-1.292 1.55-.181 3.845-7.24 3.845-11.824 0-6.511-1.379-7.278-11.919-6.625-10.302.64-9.949.832-8.606-4.697 1.54-6.345 2.118-6.631 16.72-8.262 14.969-1.672 16.772-2.614 18.404-9.622 1.452-6.232-1.114-15.443-4.106-14.741-.34.081-9.722 1.019-20.847 2.087z"/><path d="m530.588 514.685c-6.766 6.73-1.7 18.52 8.422 19.598 8.674.923 8.667.913 9.955 16.077 1.639 19.305 5.141 53.876 5.715 56.438.669 2.975 3.518 3.759 13.2 3.638 14.118-.176 13.392 2.927 9.814-41.903-2.651-33.224-3.351-30.654 8.341-30.68 9.823-.022 11.762-1.863 11.762-11.172 0-8.9-.62-9.2-22.866-11.065-10.576-.887-23.204-2.053-28.063-2.593-12.502-1.386-13.296-1.305-16.28 1.662z"/><path d="m477.921 505.299c-27.927 10.593-35.947 61.477-13.587 86.21 19.417 21.477 58.49 11.404 59.053-15.225.222-10.531-15.294-13.816-20.189-4.274-8.689 16.939-22.561 8.434-24.496-15.018-1.749-21.217 4.575-33.167 16.316-30.832 3.713.738 12.353 8.402 12.353 10.956 0 4.763 11.638 6.751 15.725 2.687 15.208-15.125-21.782-43.378-45.175-34.504z"/><path d="m429.419 368.925c-12.478 1.846-10.631-1.691-21.183 40.565-12.823 51.344-13.873 53.578-25.712 54.642-6.058.545-7.135.363-9.037-1.529l-2.159-2.147 2.062-7.034c1.134-3.869 3.87-13.779 6.079-22.022 2.21-8.244 6.168-22.785 8.795-32.313 6.594-23.918 6.57-23.991-7.696-23.879-19.354.152-21.663 3.606-34.772 52.057-8.425 31.135-9.265 35.351-8.497 42.658 4.696 44.682 77.937 34.506 96.614-13.424 4.498-11.545 20.378-85.591 18.692-87.163-1.731-1.611-13.649-1.823-23.186-.411z"/><path d="m599.275 378.597c-30.075.963-28.848-.977-43.153 68.308-2.289 11.086-5.307 25.123-6.708 31.194-5.396 23.388-6.877 22.284 31.645 23.591l30.552 1.036 4.414-3.598c19.722-16.071 14.034-29.616-12.297-29.276-19.301.249-17.767 1.246-15.538-10.105l1.811-9.224 12.473-.652c21.811-1.139 27.543-4.943 27.543-18.278 0-7.009-1.596-7.609-18.047-6.788-16.187.807-15.109 1.636-12.267-9.427l1.859-7.236 6.172-.753c3.396-.413 10.574-.674 15.953-.579l9.78.174 2.97-3.538c4.779-5.694 7.098-20.722 3.638-23.579-1.83-1.511-17.791-2.008-40.8-1.27z"/><path d="m689.781 370.529c-7.259 1.045-24.738 5.765-28.741 7.76-4.818 2.402-4.184 17.1.9 20.863 2.419 1.789 8.601 1.111 15.888-1.743 22.246-8.713 35.449 1.594 28.4 22.168-4.089 11.935-20.6 22.628-18.067 11.701 3.786-16.334-1.912-21.36-19.149-16.896-14.514 3.761-13.843 2.127-24.421 59.443-5.305 28.745-2.618 32.018 22.067 26.891 7.444-1.545 7.353-1.37 10.566-20.235 2.791-16.373 3.125-16.997 9.103-17.022 4.55-.018 6.577 2.136 16.614 17.658 7.655 11.836 7.399 11.743 20.749 7.55 19.474-6.119 19.616-12.368.83-36.554l-5.991-7.715 6.78-7.148c38.059-40.123 19.663-74.67-35.528-66.721z"/><path d="m298.977 519.68c-31.987 8.412-27.994 4.526-36.372 35.404-3.216 11.851-6.935 25.502-8.264 30.334-9.929 36.089-10.16 37.699-5.771 40.141 4.095 2.277 19.11-1.976 20.685-5.86 1.694-4.175 11.533-37.448 11.533-39.002 0-1.918.73-2.22 9.963-4.116 15.042-3.088 18.638-6.349 17.896-16.222-.437-5.806-2.266-6.711-10.243-5.073-7.389 1.518-10.443-9.697-3.163-11.614.911-.241 6.971-1.71 13.465-3.267 13.3-3.187 13.071-2.967 15.786-15.195 2.542-11.451-.498-12.109-25.515-5.53z"/><path d="m301.656 381.359c-40.686 10.879-53.811 44.78-26.731 69.052 4.509 4.041 10.315 9.248 12.902 11.573 5.341 4.797 5.409 6.193.656 13.465-6.554 10.029-24.068 10.086-20.238.066 6.958-18.2-20.123-17.404-28.667.842-16.552 35.35 39.307 49.527 71.342 18.107 23.058-22.615 20.329-46.659-7.881-69.422-9.824-7.927-10.648-13.744-2.537-17.916 6.476-3.331 10.074-1.614 11.139 5.317 2.01 13.083 22.548 9.05 26.418-5.188 5.512-20.283-11.673-32.508-36.403-25.896z"/><path d="m693.739 511.03c-10.53 3-9.517.68-14.937 34.223-2.278 14.108-4.542 26.708-5.028 27.999-.908 2.403-6.172-12.627-14.747-42.102-4.343-14.932-3.742-14.358-14.281-13.618-14.05.986-13.866-.583-4.276 36.359 16.265 62.652 14.621 59.194 27.603 58.039 22.989-2.046 24.066-4.036 33.701-62.174 6.353-38.334 5.474-42.573-8.035-38.726z"/><path d="m493.86 364.145c-7.815 1.448-12.789 3.053-17.15 5.535l-4.158 2.365v9.486c0 12.964 1.068 14.086 9.724 10.222 25.617-11.433 47.277 2.227 35.145 23.318-9.787 17.013-27 22.407-20.443 3.649 3.78-10.816-8.882-13.921-24.63-6.908-7.571 3.372-6.777 1.45-14.266 34.576-2.57 11.37-5.862 24.75-7.314 29.734-4.485 15.387-4.035 15.817 16.333 15.574 8.979-.106 14.84-.595 15.26-1.271.375-.604 2.53-8.318 4.787-17.142l4.106-16.043 3.642-.509c40.306-5.626 60.322-23.699 60.686-54.791.32-27.373-27.16-44.201-61.722-37.795z"/><path d="m741.582 497.024c-34.009 11.267-31.717 6.889-26.31 50.254 6.998 56.125 6.469 55.104 25.181 48.597 38.238-13.297 45.195-17.467 43.28-25.941-3.004-13.298-5.177-13.78-24.727-5.495-12.473 5.285-13.269 5.091-14.29-3.476l-.62-5.207 10.986-3.893c13.258-4.697 14.739-6.056 14.425-13.223-.47-10.744-3.442-11.918-17.596-6.95-10.319 3.622-9.604 3.856-10.355-3.382l-.586-5.644 8.185-3.367c4.502-1.852 9.627-3.956 11.389-4.677 7.298-2.983 9.954-12.077 5.889-20.163-2.462-4.896-2.264-4.916-24.851 2.567z"/><path d="m604.462 520.017c-1.667 1.658-1.743 4.599-1.051 40.572 1.056 54.785.667 53.29 13.605 52.201 14.757-1.243 13.971.369 12.841-26.338-.492-11.655-1.264-31.029-1.715-43.055-.585-15.626-1.212-22.335-2.197-23.516-2.069-2.479-18.96-2.373-21.483.136z"/><path d="m416.426 504.988c-21.716 1.134-20.51.257-23.975 17.442-2.3 11.412-11.134 61.447-12.617 71.466-.484 3.278-.112 4.278 2.603 6.978 3.758 3.736 1.567 3.66 30.505 1.077l23.232-2.073 2.785-3.029c11.495-12.507 3.765-22.717-15.346-20.266-7.239.928-13.378 1.472-13.643 1.208-.396-.394.668-13.858 1.12-14.178.077-.054 6.082-.677 13.343-1.385 15.961-1.554 16.419-1.849 16.419-10.599 0-11.362-1.382-12.082-17.67-9.197-8.154 1.446-11.088-5.659-5.644-13.665.118-.172 6.204-.975 13.527-1.781 16.026-1.766 16.732-2.25 18.193-12.457 1.666-11.637 2.526-11.387-32.832-9.541z"/><path d="m234.063 533.334c-33.244 9.225-34.997 11.859-56.182 84.43-9.3 31.86-10.561 30.705 23.955 21.948 33.799-8.575 31.002-7.578 33.122-11.804 8.562-17.064 4.588-20.848-17.501-16.661-12.857 2.436-11.993 2.89-9.345-4.909 2.701-7.953 2.213-7.609 17.07-12.043 14.155-4.224 16.2-5.797 18.173-13.981 2.176-9.018.066-9.861-14.795-5.908-10.602 2.82-10.527 2.911-6.157-7.492l2.779-6.616 14.02-3.427c15.333-3.748 15.804-4.063 18.232-12.194 4.749-15.905.5-17.967-23.371-11.343z"/></g></g></svg>