<?xml version="1.0" encoding="UTF-8" standalone="no"?>
<!DOCTYPE svg PUBLIC "-//W3C//DTD SVG 1.1//EN" "http://www.w3.org/Graphics/SVG/1.1/DTD/svg11.dtd">
<svg width="100%" height="100%" viewBox="0 0 560 300" version="1.1" xmlns="http://www.w3.org/2000/svg" xmlns:xlink="http://www.w3.org/1999/xlink" xml:space="preserve" xmlns:serif="http://www.serif.com/" style="fill-rule:evenodd;clip-rule:evenodd;stroke-linejoin:round;stroke-miterlimit:2;">
    <g transform="matrix(1,0,0,1,-3839.41,-1949.11)">
        <g id="Artboard1" transform="matrix(0.697198,0,0,0.605656,1767.32,981.764)">
            <rect x="2972.02" y="1597.18" width="803.216" height="495.331" style="fill:none;"/>
            <g transform="matrix(1.00745,0,0,1.88057,-50.6296,-1599.74)">
                <g transform="matrix(0.23696,-0.0489091,0.0793098,0.14613,3004.58,1794.1)">
                    <g>
                        <path d="M46.513,362.1C60.719,184.845 209.092,45.4 390,45.4C570.908,45.4 719.281,184.845 733.487,362.1L554.878,362.1C541.582,283.081 472.775,222.8 390,222.8C307.225,222.8 238.418,283.081 225.122,362.1L46.513,362.1Z" style="fill:rgb(255,27,28);"/>
                        <path d="M733.495,417.8C719.337,595.103 570.942,734.6 390,734.6C209.058,734.6 60.663,595.103 46.505,417.8L225.105,417.8C238.36,496.868 307.19,557.2 390,557.2C472.81,557.2 541.64,496.868 554.895,417.8L733.495,417.8Z" style="fill:white;"/>
                        <path d="M500.58,417.8C488.157,467.3 443.33,504 390,504C336.67,504 291.843,467.3 279.42,417.8C277.186,408.901 276,399.588 276,390C276,380.376 277.195,371.029 279.445,362.1C291.903,312.65 336.705,276 390,276C443.295,276 488.097,312.65 500.555,362.1C502.805,371.029 504,380.376 504,390C504,399.588 502.814,408.901 500.58,417.8Z" style="fill:white;"/>
                        <g transform="matrix(0.997646,-0.00457909,0.00457909,0.997646,-0.867789,2.70383)">
                            <path d="M390,0C605.247,0 780,174.753 780,390C780,605.247 605.247,780 390,780C174.753,780 0,605.247 0,390C0,174.753 174.753,0 390,0ZM225.105,417.8L46.505,417.8C60.663,595.103 209.058,734.6 390,734.6C570.942,734.6 719.337,595.103 733.495,417.8L554.895,417.8C541.64,496.868 472.81,557.2 390,557.2C307.19,557.2 238.36,496.868 225.105,417.8ZM554.878,362.1L733.487,362.1C719.281,184.845 570.908,45.4 390,45.4C209.092,45.4 60.719,184.845 46.513,362.1L225.122,362.1C238.418,283.081 307.225,222.8 390,222.8C472.775,222.8 541.582,283.081 554.878,362.1ZM500.58,417.8C502.814,408.901 504,399.588 504,390C504,380.376 502.805,371.029 500.555,362.1C488.097,312.65 443.295,276 390,276C336.705,276 291.903,312.65 279.445,362.1C277.195,371.029 276,380.376 276,390C276,399.588 277.186,408.901 279.42,417.8C291.843,467.3 336.67,504 390,504C443.33,504 488.157,467.3 500.58,417.8Z"/>
                        </g>
                    </g>
                </g>
                <g transform="matrix(1.20876,-0.0101022,0.0171808,0.781791,2355.13,1492.96)">
                    <g transform="matrix(5.06998,0.852386,-0.835728,4.51916,616.354,303.018)">
                        <path d="M12.95,2.688L14.862,8.501C14.961,8.802 15.198,9.039 15.499,9.138L21.312,11.05C21.723,11.185 22,11.568 22,12C22,12.432 21.723,12.815 21.312,12.95L15.499,14.862C15.198,14.961 14.961,15.198 14.862,15.499L12.95,21.312C12.815,21.723 12.432,22 12,22C11.568,22 11.185,21.723 11.05,21.312L9.138,15.499C9.039,15.198 8.802,14.961 8.501,14.862L2.688,12.95C2.277,12.815 2,12.432 2,12C2,11.568 2.277,11.185 2.688,11.05L8.501,9.138C8.802,9.039 9.039,8.802 9.138,8.501L11.05,2.688C11.185,2.277 11.568,2 12,2C12.432,2 12.815,2.277 12.95,2.688Z" style="fill:rgb(255,207,0);stroke:black;stroke-width:1.65px;"/>
                    </g>
                    <g transform="matrix(3.40109,0.689293,-0.675823,3.03159,693.355,279.565)">
                        <path d="M12.95,2.688L14.862,8.501C14.961,8.802 15.198,9.039 15.499,9.138L21.312,11.05C21.723,11.185 22,11.568 22,12C22,12.432 21.723,12.815 21.312,12.95L15.499,14.862C15.198,14.961 14.961,15.198 14.862,15.499L12.95,21.312C12.815,21.723 12.432,22 12,22C11.568,22 11.185,21.723 11.05,21.312L9.138,15.499C9.039,15.198 8.802,14.961 8.501,14.862L2.688,12.95C2.277,12.815 2,12.432 2,12C2,11.568 2.277,11.185 2.688,11.05L8.501,9.138C8.802,9.039 9.039,8.802 9.138,8.501L11.05,2.688C11.185,2.277 11.568,2 12,2C12.432,2 12.815,2.277 12.95,2.688Z" style="fill:rgb(255,207,0);stroke:black;stroke-width:2.45px;"/>
                    </g>
                </g>
                <g transform="matrix(0.982124,0.0200504,-0.0332473,0.619335,2994.5,1526.12)">
                    <path d="M759.644,471.48C765.08,472.033 769.168,473.745 772.612,475.647C777.719,478.469 782.471,482.647 786.455,490.615C792.412,502.53 802.362,556.882 805.199,569.507C808.123,582.521 806.03,593.015 792.639,604.04C786.277,609.279 772.678,615.986 744.932,625.688C732.717,629.959 679.964,641.781 667.525,642.894C655.748,643.947 628.512,643.86 618.248,643.739C595.356,643.471 541.458,638.197 531.476,637.57C495.468,635.311 422.069,633.239 422.069,633.239C406.257,634.658 357.697,638.739 340.586,642.212C326.511,645.069 292.672,650.977 280.755,654.372C274.943,656.028 245.343,663.469 224.073,668.895C208.932,672.757 199.144,674.886 193.499,675.028C180.95,675.345 173.01,671.031 167.478,665.935C162.069,660.951 157.408,653.767 157.67,642.394C157.79,637.204 160.028,628.203 164.075,614.264C173.299,582.493 179.211,563.651 185.239,551.689C191.729,538.81 198.991,531.286 207.866,525.555C212.626,522.481 218.058,519.986 224.72,517.637C218.039,505.566 217.051,490.459 224.827,473.762C229.652,463.401 237.354,456.008 245.941,451.152C241.205,438.029 241.747,424.511 246.55,412.036C254.027,392.614 273.11,374.533 303.643,366.325C323.254,361.052 340.14,363.572 352.507,369.895C355.053,367.82 357.696,366.176 360.407,364.797C367.5,361.188 375.94,359.358 387.743,359.264C395.707,359.202 401.969,360.195 406.91,361.741C408.737,360.357 410.623,359.234 412.543,358.245C416.737,356.084 421.875,354.779 430.197,353.54C441.571,351.847 455.224,352.179 461.548,353.43C464.435,354 466.957,354.804 469.144,355.722C474.847,353.018 481.541,350.88 491.03,349.112C522.851,343.182 550.006,350.888 567.088,366.937C567.313,366.848 567.54,366.76 567.767,366.673C574.728,364.013 583.87,362.994 597.369,362.559C617.98,361.895 633.535,362.401 639.984,363.389C642.089,363.712 643.995,364.145 645.714,364.646C653.396,361.651 672.373,356.297 680.824,355.074C724.988,348.678 752.372,364.639 763.159,385.009C772.3,402.27 771.473,427.911 750.501,455.019C755.044,461.673 758,467.092 759.644,471.48ZM301.656,381.359C260.97,392.238 247.845,426.139 274.925,450.411C279.434,454.452 285.24,459.659 287.827,461.984C293.168,466.781 293.236,468.177 288.483,475.449C281.929,485.478 264.415,485.535 268.245,475.515C275.203,457.315 248.122,458.111 239.578,476.357C223.026,511.707 278.885,525.884 310.92,494.464C333.978,471.849 331.249,447.805 303.039,425.042C293.215,417.115 292.391,411.298 300.502,407.126C306.978,403.795 310.576,405.512 311.641,412.443C313.651,425.526 334.189,421.493 338.059,407.255C343.571,386.972 326.386,374.747 301.656,381.359ZM298.977,519.68C266.99,528.092 270.983,524.206 262.605,555.084C259.389,566.935 255.67,580.586 254.341,585.418C244.412,621.507 244.181,623.117 248.57,625.559C252.665,627.836 267.68,623.583 269.255,619.699C270.949,615.524 280.788,582.251 280.788,580.697C280.788,578.779 281.518,578.477 290.751,576.581C305.793,573.493 309.389,570.232 308.647,560.359C308.21,554.553 306.381,553.648 298.404,555.286C291.015,556.804 287.961,545.589 295.241,543.672C296.152,543.431 302.212,541.962 308.706,540.405C322.006,537.218 321.777,537.438 324.492,525.21C327.034,513.759 323.994,513.101 298.977,519.68ZM689.781,370.529C682.522,371.574 665.043,376.294 661.04,378.289C656.222,380.691 656.856,395.389 661.94,399.152C664.359,400.941 670.541,400.263 677.828,397.409C700.074,388.696 713.277,399.003 706.228,419.577C702.139,431.512 685.628,442.205 688.161,431.278C691.947,414.944 686.249,409.918 669.012,414.382C654.498,418.143 655.169,416.509 644.591,473.825C639.286,502.57 641.973,505.843 666.658,500.716C674.102,499.171 674.011,499.346 677.224,480.481C680.015,464.108 680.349,463.484 686.327,463.459C690.877,463.441 692.904,465.595 702.941,481.117C710.596,492.953 710.34,492.86 723.69,488.667C743.164,482.548 743.306,476.299 724.52,452.113L718.529,444.398L725.309,437.25C763.368,397.127 744.972,362.58 689.781,370.529ZM493.86,364.145C486.045,365.593 481.071,367.198 476.71,369.68L472.552,372.045L472.552,381.531C472.552,394.495 473.62,395.617 482.276,391.753C507.893,380.32 529.553,393.98 517.421,415.071C507.634,432.084 490.421,437.478 496.978,418.72C500.758,407.904 488.096,404.799 472.348,411.812C464.777,415.184 465.571,413.262 458.082,446.388C455.512,457.758 452.22,471.138 450.768,476.122C446.283,491.509 446.733,491.939 467.101,491.696C476.08,491.59 481.941,491.101 482.361,490.425C482.736,489.821 484.891,482.107 487.148,473.283L491.254,457.24L494.896,456.731C535.202,451.105 555.218,433.032 555.582,401.94C555.902,374.567 528.422,357.739 493.86,364.145ZM429.419,368.925C416.941,370.771 418.788,367.234 408.236,409.49C395.413,460.834 394.363,463.068 382.524,464.132C376.466,464.677 375.389,464.495 373.487,462.603L371.328,460.456L373.39,453.422C374.524,449.553 377.26,439.643 379.469,431.4C381.679,423.156 385.637,408.615 388.264,399.087C394.858,375.169 394.834,375.096 380.568,375.208C361.214,375.36 358.905,378.814 345.796,427.265C337.371,458.4 336.531,462.616 337.299,469.923C341.995,514.605 415.236,504.429 433.913,456.499C438.411,444.954 454.291,370.908 452.605,369.336C450.874,367.725 438.956,367.513 429.419,368.925ZM693.739,511.03C683.209,514.03 684.222,511.71 678.802,545.253C676.524,559.361 674.26,571.961 673.774,573.252C672.866,575.655 667.602,560.625 659.027,531.15C654.684,516.218 655.285,516.792 644.746,517.532C630.696,518.518 630.88,516.949 640.47,553.891C656.735,616.543 655.091,613.085 668.073,611.93C691.062,609.884 692.139,607.894 701.774,549.756C708.127,511.422 707.248,507.183 693.739,511.03ZM599.275,378.597C569.2,379.56 570.427,377.62 556.122,446.905C553.833,457.991 550.815,472.028 549.414,478.099C544.018,501.487 542.537,500.383 581.059,501.69L611.611,502.726L616.025,499.128C635.747,483.057 630.059,469.512 603.728,469.852C584.427,470.101 585.961,471.098 588.19,459.747L590.001,450.523L602.474,449.871C624.285,448.732 630.017,444.928 630.017,431.593C630.017,424.584 628.421,423.984 611.97,424.805C595.783,425.612 596.861,426.441 599.703,415.378L601.562,408.142L607.734,407.389C611.13,406.976 618.308,406.715 623.687,406.81L633.467,406.984L636.437,403.446C641.216,397.752 643.535,382.724 640.075,379.867C638.245,378.356 622.284,377.859 599.275,378.597ZM741.582,497.024C707.573,508.291 709.865,503.913 715.272,547.278C722.27,603.403 721.741,602.382 740.453,595.875C778.691,582.578 785.648,578.408 783.733,569.934C780.729,556.636 778.556,556.154 759.006,564.439C746.533,569.724 745.737,569.53 744.716,560.963L744.096,555.756L755.082,551.863C768.34,547.166 769.821,545.807 769.507,538.64C769.037,527.896 766.065,526.722 751.911,531.69C741.592,535.312 742.307,535.546 741.556,528.308L740.97,522.664L749.155,519.297C753.657,517.445 758.782,515.341 760.544,514.62C767.842,511.637 770.498,502.543 766.433,494.457C763.971,489.561 764.169,489.541 741.582,497.024ZM604.462,520.017C602.795,521.675 602.719,524.616 603.411,560.589C604.467,615.374 604.078,613.879 617.016,612.79C631.773,611.547 630.987,613.159 629.857,586.452C629.365,574.797 628.593,555.423 628.142,543.397C627.557,527.771 626.93,521.062 625.945,519.881C623.876,517.402 606.985,517.508 604.462,520.017ZM416.426,504.988C394.71,506.122 395.916,505.245 392.451,522.43C390.151,533.842 381.317,583.877 379.834,593.896C379.35,597.174 379.722,598.174 382.437,600.874C386.195,604.61 384.004,604.534 412.942,601.951L436.174,599.878L438.959,596.849C450.454,584.342 442.724,574.132 423.613,576.583C416.374,577.511 410.235,578.055 409.97,577.791C409.574,577.397 410.638,563.933 411.09,563.613C411.167,563.559 417.172,562.936 424.433,562.228C440.394,560.674 440.852,560.379 440.852,551.629C440.852,540.267 439.47,539.547 423.182,542.432C415.028,543.878 412.094,536.773 417.538,528.767C417.656,528.595 423.742,527.792 431.065,526.986C447.091,525.22 447.797,524.736 449.258,514.529C450.924,502.892 451.784,503.142 416.426,504.988ZM234.063,533.334C200.819,542.559 199.066,545.193 177.881,617.764C168.581,649.624 167.32,648.469 201.836,639.712C235.635,631.137 232.838,632.134 234.958,627.908C243.52,610.844 239.546,607.06 217.457,611.247C204.6,613.683 205.464,614.137 208.112,606.338C210.813,598.385 210.325,598.729 225.182,594.295C239.337,590.071 241.382,588.498 243.355,580.314C245.531,571.296 243.421,570.453 228.56,574.406C217.958,577.226 218.033,577.317 222.403,566.914L225.182,560.298L239.202,556.871C254.535,553.123 255.006,552.808 257.434,544.677C262.183,528.772 257.934,526.71 234.063,533.334ZM477.921,505.299C449.994,515.892 441.974,566.776 464.334,591.509C483.751,612.986 522.824,602.913 523.387,576.284C523.609,565.753 508.093,562.468 503.198,572.01C494.509,588.949 480.637,580.444 478.702,556.992C476.953,535.775 483.277,523.825 495.018,526.16C498.731,526.898 507.371,534.562 507.371,537.116C507.371,541.879 519.009,543.867 523.096,539.803C538.304,524.678 501.314,496.425 477.921,505.299ZM361.899,509.09C330.275,512.125 332.3,510.482 325.153,538.902C307.512,609.057 307.461,615.213 324.552,611.762C336.058,609.44 336.903,608.928 336.965,604.247C336.993,602.135 339.029,592.499 341.488,582.834L345.959,565.261L356.767,564.066C362.713,563.409 367.95,562.828 368.408,562.774C369.958,562.593 372.253,555.534 372.253,550.95C372.253,544.439 370.874,543.672 360.334,544.325C350.032,544.965 350.385,545.157 351.728,539.628C353.268,533.283 353.846,532.997 368.448,531.366C383.417,529.694 385.22,528.752 386.852,521.744C388.304,515.512 385.738,506.301 382.746,507.003C382.406,507.084 373.024,508.022 361.899,509.09ZM530.588,514.685C523.822,521.415 528.888,533.205 539.01,534.283C547.684,535.206 547.677,535.196 548.965,550.36C550.604,569.665 554.106,604.236 554.68,606.798C555.349,609.773 558.198,610.557 567.88,610.436C581.998,610.26 581.272,613.363 577.694,568.533C575.043,535.309 574.343,537.879 586.035,537.853C595.858,537.831 597.797,535.99 597.797,526.681C597.797,517.781 597.177,517.481 574.931,515.616C564.355,514.729 551.727,513.563 546.868,513.023C534.366,511.637 533.572,511.718 530.588,514.685Z"/>
                </g>
                <g transform="matrix(1.01802,0.0207832,-0.0328908,0.612694,3098.04,1591.8)">
                    <g transform="matrix(0.964739,0,7.0141e-18,1.01084,-105.057,-103.646)">
                        <path d="M361.899,509.09C330.275,512.125 332.3,510.482 325.153,538.902C307.512,609.057 307.461,615.213 324.552,611.762C336.058,609.44 336.903,608.928 336.965,604.247C336.993,602.135 339.029,592.499 341.488,582.834L345.959,565.261L356.767,564.066C362.713,563.409 367.95,562.828 368.408,562.774C369.958,562.593 372.253,555.534 372.253,550.95C372.253,544.439 370.874,543.672 360.334,544.325C350.032,544.965 350.385,545.157 351.728,539.628C353.268,533.283 353.846,532.997 368.448,531.366C383.417,529.694 385.22,528.752 386.852,521.744C388.304,515.512 385.738,506.301 382.746,507.003C382.406,507.084 373.024,508.022 361.899,509.09Z" style="fill:white;"/>
                    </g>
                    <g transform="matrix(0.964739,0,7.0141e-18,1.01084,-105.057,-103.646)">
                        <path d="M530.588,514.685C523.822,521.415 528.888,533.205 539.01,534.283C547.684,535.206 547.677,535.196 548.965,550.36C550.604,569.665 554.106,604.236 554.68,606.798C555.349,609.773 558.198,610.557 567.88,610.436C581.998,610.26 581.272,613.363 577.694,568.533C575.043,535.309 574.343,537.879 586.035,537.853C595.858,537.831 597.797,535.99 597.797,526.681C597.797,517.781 597.177,517.481 574.931,515.616C564.355,514.729 551.727,513.563 546.868,513.023C534.366,511.637 533.572,511.718 530.588,514.685Z" style="fill:white;"/>
                    </g>
                    <g transform="matrix(0.964739,0,7.0141e-18,1.01084,-105.057,-103.646)">
                        <path d="M477.921,505.299C449.994,515.892 441.974,566.776 464.334,591.509C483.751,612.986 522.824,602.913 523.387,576.284C523.609,565.753 508.093,562.468 503.198,572.01C494.509,588.949 480.637,580.444 478.702,556.992C476.953,535.775 483.277,523.825 495.018,526.16C498.731,526.898 507.371,534.562 507.371,537.116C507.371,541.879 519.009,543.867 523.096,539.803C538.304,524.678 501.314,496.425 477.921,505.299Z" style="fill:white;"/>
                    </g>
                    <g transform="matrix(0.964739,0,7.0141e-18,1.01084,-105.057,-103.646)">
                        <path d="M429.419,368.925C416.941,370.771 418.788,367.234 408.236,409.49C395.413,460.834 394.363,463.068 382.524,464.132C376.466,464.677 375.389,464.495 373.487,462.603L371.328,460.456L373.39,453.422C374.524,449.553 377.26,439.643 379.469,431.4C381.679,423.156 385.637,408.615 388.264,399.087C394.858,375.169 394.834,375.096 380.568,375.208C361.214,375.36 358.905,378.814 345.796,427.265C337.371,458.4 336.531,462.616 337.299,469.923C341.995,514.605 415.236,504.429 433.913,456.499C438.411,444.954 454.291,370.908 452.605,369.336C450.874,367.725 438.956,367.513 429.419,368.925Z" style="fill:white;"/>
                    </g>
                    <g transform="matrix(0.964739,0,7.0141e-18,1.01084,-105.057,-103.646)">
                        <path d="M599.275,378.597C569.2,379.56 570.427,377.62 556.122,446.905C553.833,457.991 550.815,472.028 549.414,478.099C544.018,501.487 542.537,500.383 581.059,501.69L611.611,502.726L616.025,499.128C635.747,483.057 630.059,469.512 603.728,469.852C584.427,470.101 585.961,471.098 588.19,459.747L590.001,450.523L602.474,449.871C624.285,448.732 630.017,444.928 630.017,431.593C630.017,424.584 628.421,423.984 611.97,424.805C595.783,425.612 596.861,426.441 599.703,415.378L601.562,408.142L607.734,407.389C611.13,406.976 618.308,406.715 623.687,406.81L633.467,406.984L636.437,403.446C641.216,397.752 643.535,382.724 640.075,379.867C638.245,378.356 622.284,377.859 599.275,378.597Z" style="fill:white;"/>
                    </g>
                    <g transform="matrix(0.964739,0,7.0141e-18,1.01084,-105.057,-103.646)">
                        <path d="M689.781,370.529C682.522,371.574 665.043,376.294 661.04,378.289C656.222,380.691 656.856,395.389 661.94,399.152C664.359,400.941 670.541,400.263 677.828,397.409C700.074,388.696 713.277,399.003 706.228,419.577C702.139,431.512 685.628,442.205 688.161,431.278C691.947,414.944 686.249,409.918 669.012,414.382C654.498,418.143 655.169,416.509 644.591,473.825C639.286,502.57 641.973,505.843 666.658,500.716C674.102,499.171 674.011,499.346 677.224,480.481C680.015,464.108 680.349,463.484 686.327,463.459C690.877,463.441 692.904,465.595 702.941,481.117C710.596,492.953 710.34,492.86 723.69,488.667C743.164,482.548 743.306,476.299 724.52,452.113L718.529,444.398L725.309,437.25C763.368,397.127 744.972,362.58 689.781,370.529Z" style="fill:white;"/>
                    </g>
                    <g transform="matrix(0.964739,0,7.0141e-18,1.01084,-105.057,-103.646)">
                        <path d="M298.977,519.68C266.99,528.092 270.983,524.206 262.605,555.084C259.389,566.935 255.67,580.586 254.341,585.418C244.412,621.507 244.181,623.117 248.57,625.559C252.665,627.836 267.68,623.583 269.255,619.699C270.949,615.524 280.788,582.251 280.788,580.697C280.788,578.779 281.518,578.477 290.751,576.581C305.793,573.493 309.389,570.232 308.647,560.359C308.21,554.553 306.381,553.648 298.404,555.286C291.015,556.804 287.961,545.589 295.241,543.672C296.152,543.431 302.212,541.962 308.706,540.405C322.006,537.218 321.777,537.438 324.492,525.21C327.034,513.759 323.994,513.101 298.977,519.68Z" style="fill:white;"/>
                    </g>
                    <g transform="matrix(0.964739,0,7.0141e-18,1.01084,-105.057,-103.646)">
                        <path d="M301.656,381.359C260.97,392.238 247.845,426.139 274.925,450.411C279.434,454.452 285.24,459.659 287.827,461.984C293.168,466.781 293.236,468.177 288.483,475.449C281.929,485.478 264.415,485.535 268.245,475.515C275.203,457.315 248.122,458.111 239.578,476.357C223.026,511.707 278.885,525.884 310.92,494.464C333.978,471.849 331.249,447.805 303.039,425.042C293.215,417.115 292.391,411.298 300.502,407.126C306.978,403.795 310.576,405.512 311.641,412.443C313.651,425.526 334.189,421.493 338.059,407.255C343.571,386.972 326.386,374.747 301.656,381.359Z" style="fill:white;"/>
                    </g>
                    <g transform="matrix(0.964739,0,7.0141e-18,1.01084,-105.057,-103.646)">
                        <path d="M693.739,511.03C683.209,514.03 684.222,511.71 678.802,545.253C676.524,559.361 674.26,571.961 673.774,573.252C672.866,575.655 667.602,560.625 659.027,531.15C654.684,516.218 655.285,516.792 644.746,517.532C630.696,518.518 630.88,516.949 640.47,553.891C656.735,616.543 655.091,613.085 668.073,611.93C691.062,609.884 692.139,607.894 701.774,549.756C708.127,511.422 707.248,507.183 693.739,511.03Z" style="fill:white;"/>
                    </g>
                    <g transform="matrix(0.964739,0,7.0141e-18,1.01084,-105.057,-103.646)">
                        <path d="M493.86,364.145C486.045,365.593 481.071,367.198 476.71,369.68L472.552,372.045L472.552,381.531C472.552,394.495 473.62,395.617 482.276,391.753C507.893,380.32 529.553,393.98 517.421,415.071C507.634,432.084 490.421,437.478 496.978,418.72C500.758,407.904 488.096,404.799 472.348,411.812C464.777,415.184 465.571,413.262 458.082,446.388C455.512,457.758 452.22,471.138 450.768,476.122C446.283,491.509 446.733,491.939 467.101,491.696C476.08,491.59 481.941,491.101 482.361,490.425C482.736,489.821 484.891,482.107 487.148,473.283L491.254,457.24L494.896,456.731C535.202,451.105 555.218,433.032 555.582,401.94C555.902,374.567 528.422,357.739 493.86,364.145Z" style="fill:white;"/>
                    </g>
                    <g transform="matrix(0.964739,0,7.0141e-18,1.01084,-105.057,-103.646)">
                        <path d="M741.582,497.024C707.573,508.291 709.865,503.913 715.272,547.278C722.27,603.403 721.741,602.382 740.453,595.875C778.691,582.578 785.648,578.408 783.733,569.934C780.729,556.636 778.556,556.154 759.006,564.439C746.533,569.724 745.737,569.53 744.716,560.963L744.096,555.756L755.082,551.863C768.34,547.166 769.821,545.807 769.507,538.64C769.037,527.896 766.065,526.722 751.911,531.69C741.592,535.312 742.307,535.546 741.556,528.308L740.97,522.664L749.155,519.297C753.657,517.445 758.782,515.341 760.544,514.62C767.842,511.637 770.498,502.543 766.433,494.457C763.971,489.561 764.169,489.541 741.582,497.024Z" style="fill:white;"/>
                    </g>
                    <g transform="matrix(0.964739,0,7.0141e-18,1.01084,-105.057,-103.646)">
                        <path d="M604.462,520.017C602.795,521.675 602.719,524.616 603.411,560.589C604.467,615.374 604.078,613.879 617.016,612.79C631.773,611.547 630.987,613.159 629.857,586.452C629.365,574.797 628.593,555.423 628.142,543.397C627.557,527.771 626.93,521.062 625.945,519.881C623.876,517.402 606.985,517.508 604.462,520.017Z" style="fill:white;"/>
                    </g>
                    <g transform="matrix(0.964739,0,7.0141e-18,1.01084,-105.057,-103.646)">
                        <path d="M416.426,504.988C394.71,506.122 395.916,505.245 392.451,522.43C390.151,533.842 381.317,583.877 379.834,593.896C379.35,597.174 379.722,598.174 382.437,600.874C386.195,604.61 384.004,604.534 412.942,601.951L436.174,599.878L438.959,596.849C450.454,584.342 442.724,574.132 423.613,576.583C416.374,577.511 410.235,578.055 409.97,577.791C409.574,577.397 410.638,563.933 411.09,563.613C411.167,563.559 417.172,562.936 424.433,562.228C440.394,560.674 440.852,560.379 440.852,551.629C440.852,540.267 439.47,539.547 423.182,542.432C415.028,543.878 412.094,536.773 417.538,528.767C417.656,528.595 423.742,527.792 431.065,526.986C447.091,525.22 447.797,524.736 449.258,514.529C450.924,502.892 451.784,503.142 416.426,504.988Z" style="fill:white;"/>
                    </g>
                    <g transform="matrix(0.964739,0,7.0141e-18,1.01084,-105.057,-103.646)">
                        <path d="M234.063,533.334C200.819,542.559 199.066,545.193 177.881,617.764C168.581,649.624 167.32,648.469 201.836,639.712C235.635,631.137 232.838,632.134 234.958,627.908C243.52,610.844 239.546,607.06 217.457,611.247C204.6,613.683 205.464,614.137 208.112,606.338C210.813,598.385 210.325,598.729 225.182,594.295C239.337,590.071 241.382,588.498 243.355,580.314C245.531,571.296 243.421,570.453 228.56,574.406C217.958,577.226 218.033,577.317 222.403,566.914L225.182,560.298L239.202,556.871C254.535,553.123 255.006,552.808 257.434,544.677C262.183,528.772 257.934,526.71 234.063,533.334Z" style="fill:white;"/>
                    </g>
                </g>
            </g>
        </g>
        <g id="Layer1">
        </g>
    </g>
</svg>
