<svg clip-rule="evenodd" fill-rule="evenodd" stroke-linecap="round" stroke-linejoin="round" stroke-miterlimit="1" viewBox="0 0 925 925" xmlns="http://www.w3.org/2000/svg"><g transform="matrix(.470806 0 0 .927709 -135.58 -183.825)"><path d="m287.976 198.149h1964.72v997.08h-1964.72z" fill="none"/><path d="m3416.2 1464.13c126.43 0 229.08 102.65 229.08 229.09 0 126.43-102.65 229.08-229.08 229.08-126.44 0-229.08-102.65-229.08-229.08 0-126.44 102.64-229.09 229.08-229.09zm0 153.82c41.54 0 75.27 33.72 75.27 75.27 0 41.54-33.73 75.26-75.27 75.26s-75.27-33.72-75.27-75.26c0-41.55 33.73-75.27 75.27-75.27z" fill="#fff" transform="matrix(3.09792103 -1.57349771 2.35928448 1.19631354 -13287.188518 4055.863525)"/><g transform="matrix(2.77956582 -1.41179856 2.11683476 1.07337547 -11794.234912 3708.989569)"><path d="m3475.45 1471.93-36.98 138.1c-7.26-1.94-14.75-2.93-22.27-2.93-14.73 0-29.22 3.78-42.07 10.98l-69.84-124.75c34.19-19.14 72.72-29.2 111.91-29.2 20 0 39.93 2.63 59.25 7.8z" fill="#e86ce5"/><path d="m3578.18 1531.23-101.09 101.09c-7.49-7.49-16.3-13.53-25.98-17.82l57.95-130.7c25.76 11.43 49.2 27.51 69.12 47.43z" fill="#32aae1"/><path d="m3264.63 1521.45 94.59 107.2c-12.93 11.41-22.14 26.44-26.43 43.15l-138.47-35.56c11.41-44.44 35.9-84.43 70.31-114.79z" fill="#32e132"/><path d="m3187.12 1693.22h142.96c0 26.24 11.97 51.05 32.5 67.38l-89.01 111.88c-54.62-43.46-86.45-109.46-86.45-179.26z" fill="#32aae1"/><path d="m3312.1 1897.28 64.97-127.35c12.11 6.18 25.52 9.4 39.13 9.4 4.75 0 9.49-.39 14.18-1.18l23.53 141.02c-12.46 2.08-25.08 3.13-37.71 3.13-36.19 0-71.86-8.58-104.1-25.02z" fill="#e86ce5"/><path d="m3492.41 1909.25-47.56-134.83c9.72-3.43 18.75-8.57 26.65-15.2l91.82 109.59c-21.02 17.61-45.04 31.31-70.91 40.44z" fill="#e5f20d"/><path d="m3597.02 1833.86-112.85-87.77c8.53-10.96 14.27-23.82 16.76-37.48l140.66 25.54c-6.6 36.35-21.89 70.56-44.57 99.71z" fill="#32e132"/><path d="m3645.28 1693.22h-142.97c0-17.28-5.19-34.16-14.91-48.44l118.2-80.42c25.85 38 39.68 82.9 39.68 128.86z" fill="#e5f20d"/></g><path d="m3416.2 1443.08c136.3 0 245.1 113.83 245.1 250.14 0 136.3-108.8 250.13-245.1 250.13s-245.1-113.83-245.1-250.13c0-136.31 108.8-250.14 245.1-250.14zm0 21.05c-126.44 0-229.08 102.65-229.08 229.09 0 126.43 102.64 229.08 229.08 229.08 126.43 0 229.08-102.65 229.08-229.08 0-126.44-102.65-229.09-229.08-229.09zm0 141.2c48.5 0 87.89 39.38 87.89 87.89 0 48.5-39.39 87.89-87.89 87.89-48.51 0-87.89-39.39-87.89-87.89 0-48.51 39.38-87.89 87.89-87.89zm0 21.05c-24.31 0-46.02 11.33-59.39 29.55-7.69 10.49-12.48 23.29-12.48 37.29 0 13.99 4.79 26.79 12.48 37.28 13.37 18.22 35.08 29.55 59.39 29.55s46.02-11.33 59.38-29.55c7.7-10.49 12.49-23.29 12.49-37.28 0-14-4.79-26.8-12.49-37.29-13.36-18.22-35.07-29.55-59.38-29.55z" transform="matrix(2.99851971 -1.52300974 2.28357254 1.15792258 -12820.424768 3947.844671)"/><g fill="#f6cd12" stroke="#000"><path d="m4065.48 42.481 19.93 55.248 54.24 20.3-54.24 20.299-19.93 55.248-19.93-55.248-54.24-20.299 54.24-20.3z" stroke-width="16.13" transform="matrix(3.75799256 .34678687 -.68333233 1.90715497 -14078.74095 -1256.335958)"/><path d="m4065.48 42.481 19.93 55.248 54.24 20.3-54.24 20.299-19.93 55.248-19.93-55.248-54.24-20.299 54.24-20.3z" stroke-width="10.71" transform="matrix(5.75026609 0 0 2.91822404 -22593.063544 186.35496)"/></g></g></svg>