<svg clip-rule="evenodd" fill-rule="evenodd" stroke-linecap="round" stroke-linejoin="round" stroke-miterlimit="1" viewBox="0 0 1900 910" xmlns="http://www.w3.org/2000/svg"><g transform="matrix(.967061 0 0 .912665 -278.491 -180.844)"><path d="m287.976 198.149h1964.72v997.08h-1964.72z" fill="none"/><path d="m3416.2 1464.13c126.43 0 229.08 102.65 229.08 229.09 0 126.43-102.65 229.08-229.08 229.08-126.44 0-229.08-102.65-229.08-229.08 0-126.44 102.64-229.09 229.08-229.09zm0 153.82c41.54 0 75.27 33.72 75.27 75.27 0 41.54-33.73 75.26-75.27 75.26s-75.27-33.72-75.27-75.26c0-41.55 33.73-75.27 75.27-75.27z" fill="#fff" transform="matrix(2.55297772 0 0 1.08327696 -7435.049593 -929.917946)"/><g transform="matrix(2.29062315 0 0 .97195499 -6538.764522 -743.798186)"><path d="m3475.45 1471.93-36.98 138.1c-7.26-1.94-14.75-2.93-22.27-2.93-14.73 0-29.22 3.78-42.07 10.98l-69.84-124.75c34.19-19.14 72.72-29.2 111.91-29.2 20 0 39.93 2.63 59.25 7.8z" fill="#32aae1"/><path d="m3588.26 1541.98-107.38 94.39c-8.23-9.36-18.38-16.82-29.77-21.87l57.95-130.7c30.3 13.44 57.32 33.29 79.2 58.18z" fill="#e86ce5"/><path d="m3264.63 1521.45 94.59 107.2c-10.69 9.43-18.87 21.37-23.81 34.74l-134.12-49.51c13.14-35.58 34.9-67.34 63.34-92.43z" fill="#32e132"/><path d="m3189.04 1663.58 141.77 18.5c-.48 3.69-.73 7.41-.73 11.14 0 22.84 9.08 44.74 25.23 60.89l-101.1 101.09c-42.96-42.96-67.09-101.23-67.09-161.98 0-9.91.64-19.81 1.92-29.64z" fill="#e86ce5"/><path d="m3295.04 1887.63 75.61-121.33c13.67 8.52 29.45 13.03 45.55 13.03 4.75 0 9.49-.39 14.18-1.18l23.53 141.02c-12.46 2.08-25.08 3.13-37.71 3.13-42.83 0-84.81-12.01-121.16-34.67z" fill="#e5f20d"/><path d="m3492.41 1909.25-47.56-134.83c9.72-3.43 18.75-8.57 26.65-15.2l91.82 109.59c-21.02 17.61-45.04 31.31-70.91 40.44z" fill="#32aae1"/><path d="m3593.04 1838.84-110.36-90.88c12.69-15.42 19.63-34.77 19.63-54.74 0-2.64-.12-5.28-.36-7.91l142.36-13.12c.65 6.99.97 14.01.97 21.03 0 53.12-18.47 104.6-52.24 145.62z" fill="#32e132"/><path d="m3639.14 1640.55-139.13 32.87c-2.33-9.87-6.39-19.25-11.98-27.7l119.25-78.86c14.88 22.5 25.66 47.44 31.86 73.69z" fill="#e5f20d"/></g><path d="m3416.2 1430.7c78.52 0 148.11 39.05 191.27 97.91 33.19 45.26 51.2 104.24 51.2 164.61 0 60.36-18.01 119.34-51.2 164.6-43.16 58.87-112.75 97.92-191.27 97.92s-148.11-39.05-191.28-97.92c-33.18-45.26-51.19-104.24-51.19-164.6 0-60.37 18.01-119.35 51.19-164.61 43.17-58.86 112.76-97.91 191.28-97.91zm0 33.43c-126.44 0-229.08 102.65-229.08 229.09 0 126.43 102.64 229.08 229.08 229.08 126.43 0 229.08-102.65 229.08-229.08 0-126.44-102.65-229.09-229.08-229.09zm0 141.2c48.5 0 87.89 39.38 87.89 87.89 0 48.5-39.39 87.89-87.89 87.89-48.51 0-87.89-39.39-87.89-87.89 0-48.51 39.38-87.89 87.89-87.89zm0 33.44c-26.45 0-49.97 12.08-64.51 31.9-3.04 4.15-5.62 8.56-7.58 13.39-1.23 3.05-2.41 5.67-2.41 9.16 0 3.48 1.18 6.1 2.41 9.15 1.96 4.84 4.54 9.24 7.58 13.39 14.54 19.83 38.06 31.9 64.51 31.9 26.44 0 49.96-12.07 64.5-31.9 3.04-4.15 5.63-8.55 7.58-13.39 1.24-3.05 2.42-5.67 2.42-9.15 0-3.49-1.18-6.11-2.42-9.16-1.95-4.83-4.54-9.24-7.58-13.39-14.54-19.82-38.06-31.9-64.5-31.9z" transform="matrix(2.47106171 0 0 1.04851346 -7155.179613 -871.534382)"/><path d="m2010 934.3c-44.6-2.3-82.8-19.1-115.7-50.6-15.9-15.3-29.3-35.5-38.4-57.9-8.2-20.3-10.4-34.8-9.6-64.5.3-11.7.1-21.3-.3-21.3-.5 0-2.5 2.8-4.6 6.3-14.1 23.6-41.4 44-73.2 54.7-22 7.4-37.2 9-66.1 7-10.5-.7-18.6-.9-19.1-.4-.4.5-1.3 11.7-2 24.9-.6 13.2-1.3 25.8-1.5 28s-.9 13.5-1.5 25c-.6 11.6-1.5 25.5-1.8 31l-.7 10-6 .3c-5.7.3-32.4-1.7-50-3.8-11.6-1.4-26.7-2.9-36.7-3.6-4.7-.4-9.2-1-9.9-1.5-1-.6-1.1-7.1-.1-35.1.7-18.9 1.7-48.9 2.2-66.8.9-30.4 1.5-48 4-129.5 1.1-34.4 5.6-127.3 6.6-136.8.6-4.9 1.1-6 3.3-7.1 3.9-2 11.3-3.4 30.3-5.6 60.4-6.9 128.5-3.2 165.1 9.1 42.1 14.2 65.7 36.1 79.2 73.5 1.9 5 4.1 12.9 5 17.5.8 4.5 1.7 8.4 1.9 8.7.9.9 2.7-1.1 4.7-5.1 4.5-8.8 12.4-18.9 22.7-28.9 12.6-12.2 18.1-16.4 32.5-24.7 26-15 56.2-23 89.2-23.6 25.8-.5 52.1 5 74.3 15.6 4.5 2.1 8.5 3.9 8.8 3.9 1.6 0 22.2 14.9 29.5 21.4 15.3 13.6 23.9 24.9 33.6 44.4 5.3 10.7 5.5 11.3 3.9 13.1-1 1.1-3.2 2.5-4.9 3.2-1.8.7-5.6 2.8-8.5 4.6s-5.5 3.3-5.8 3.3c-.2 0-3.9 2-8.2 4.4-4.2 2.4-13.5 7.5-20.7 11.4-7.1 3.8-17.7 9.5-23.3 12.7-5.7 3.1-11 5.4-11.7 5.1-.7-.2-3-3.8-5-7.8-8.1-15.9-16.5-25-28.4-30.9-34-16.6-77.1-2.5-94.4 30.9-8.5 16.5-10.7 27.1-10.7 52.4 0 35.7 6 57 19.8 70.5 12.8 12.5 26.6 18.3 43.2 18.4 18.2.1 34.2-7.1 48.1-21.8 3.1-3.2 6.3-5.7 7-5.5 1.7.6 12.2 8.9 23.9 19 18.6 16.1 29.9 26 44.8 38.9 3.4 3 6.2 5.9 6.2 6.4 0 1.8-17.4 19.1-24.6 24.4-19.5 14.5-41.8 24.8-63.3 29.1-11.7 2.4-29.6 4.5-35.1 4.2-1.4-.1-5-.3-8-.5zm-282.5-207.8c12.9-2.7 24.7-10.2 28.9-18.4 2.5-4.7 6.6-19.9 8.2-29.6 5.1-32.8-3.8-48.4-31.1-54.8-14.9-3.5-33-4.7-37.5-2.4-2.3 1.2-2.5 1.9-3.2 10.7-1.4 19.7-3.9 92-3.3 93 .4.6 1.7 1.5 2.9 2 3.5 1.5 27.5 1.1 35.1-.5z" fill="#fff" fill-rule="nonzero" transform="matrix(1.03406551 0 0 1.09568984 -55.495947 -177.719223)"/><path d="m1388.5 904c-25.3-2.6-43.8-8.9-66.5-22.8-37.7-23-61.8-58.2-68.5-99.7-2.2-13.3-1.7-42.4.9-54.5 1.7-7.8 7.4-24.9 9.9-29.7.9-1.5 2.4-4.7 3.5-6.9 3.3-6.8 13.9-22.1 21.2-30.3 14.5-16.5 38.8-32.9 57.9-39.1 3.1-1 7.3-2.6 9.5-3.5 11.3-4.8 52.3-8 71.1-5.6 28.6 3.8 56.3 16 78 34.4 7.2 6.1 7.6 6.6 14.1 14.2 13.9 16.3 25.1 37.9 31.4 60.5 2.6 9.4 6 30 6 36.2 0 4.1-.3 4.8-2.2 5.2-1.3.3-12.4 1.2-24.8 2.1s-26.5 2-31.5 2.5c-4.9.6-16.2 1.7-25 2.6-8.8.8-26.6 2.6-39.5 4s-37.4 3.8-54.4 5.4c-22.7 2.1-31.3 3.3-32.4 4.4-2.7 2.7-.2 7.3 9.7 18.1 7.1 7.7 17.1 13.5 30.1 17.5 9.5 2.9 25.2 3.2 35 .6 14.8-3.9 28.8-13.1 36.3-23.6 2.3-3.3 4.8-6 5.4-6 1.2 0 12.9 4.1 16.8 6 1.1.5 5.8 2.2 10.5 3.9 4.7 1.6 12.6 4.5 17.5 6.4 5 1.8 14.1 5.1 20.3 7.2 6.1 2.1 11.2 4.1 11.2 4.4-.2 1.9-10.6 19.6-15.3 25.9-23.7 31.9-56.3 51.9-96.2 59-8.8 1.6-29.6 2.2-40 1.2zm-13-176c13.2-1.1 38.1-3.1 55.3-4.4 18.7-1.5 31.8-2.9 32.7-3.6 1.1-1 1.2-1.7 0-4.9-6.8-19.3-23.2-34-43.2-38.7-8.3-2-23.7-2.2-31.8-.5-3.3.7-10.7 3.5-16.4 6.3-14.6 7.2-22.6 15-27 26.5-4.9 12.9-5.7 16.7-4.3 19.9 1.2 2.5 1.6 2.6 6 2.1 2.6-.4 15.5-1.6 28.7-2.7z" fill="#fff" fill-rule="nonzero" transform="matrix(1.03406551 0 0 1.09568984 -55.495947 -177.719223)"/><g transform="matrix(.96993726 .05993969 -.05470314 .99385334 110.255672 -168.441507)"><path d="m1274.4 564.5c-.3-.8 1-4.3 2.9-7.7 1.9-3.5 10.3-19.8 18.7-36.3 23.2-45.6 29.8-58.1 31.5-59.5 1.3-1.1 2.8-.7 9.3 2.6 4.2 2.1 12 6.3 17.2 9.3s12.4 7.1 16 9.1c11 6.2 14.4 8.2 17 9.9 1.4.9 3.7 2.3 5.2 3 1.5.8 3.7 2.5 5 3.8 1.9 2 2 2.5.7 3.7-.8.8-19.4 10.5-41.4 21.6s-40.4 20.5-41 20.9c-.5.5-5 3-10 5.6-4.9 2.6-13.6 7.2-19.2 10.1-5.5 3-10.4 5.4-10.7 5.4-.4 0-.9-.7-1.2-1.5z" fill="#fff" fill-rule="nonzero"/><path d="m1337.92 571.243c-2.73 2.094-9.34 6.66-16.98 10.648-4.9 2.602-13.42 7.107-19.05 10.022-6.61 3.594-12.58 6.397-14.01 6.954l-12.28 2.352-11.89-2.188-10.04-5.935-6.66-7.421-4.36-8.441-2.16-9.277.37-10.325s6.95-18.454 6.74-18.072c1.86-3.419 10.06-19.346 18.26-35.465 19.38-38.089 27.74-54.018 31.19-59.631l9.1-10.855 9.11-5.614 12.28-2.735 11.89 1.49c2.53.728 6.35 2.178 12.2 5.146 4.63 2.316 13.23 6.941 18.96 10.248 5.05 2.911 12.03 6.89 15.53 8.831.06.033.12.067.18.101 12.24 6.901 16.01 9.164 18.68 10.914.34.22.86.637 1.23.808.54.253 1.07.52 1.6.801l13.07 9.783c.21.21.41.422.62.637l8.57 12.922 2.28 8.148.22 10.294-3.59 12.155-8.05 10.676-6.82 5.223c-3.99 2.368-21.87 11.72-42.68 22.215-19.51 9.845-39.71 20.215-39.71 20.215s2.04-1.235 2.23-1.366zm-63.52-6.743c.3.8.8 1.5 1.2 1.5.3 0 5.2-2.4 10.7-5.4 5.6-2.9 14.3-7.5 19.2-10.1 5-2.6 9.5-5.1 10-5.6.6-.4 19-9.8 41-20.9s40.6-20.8 41.4-21.6c1.3-1.2 1.2-1.7-.7-3.7-1.3-1.3-3.5-3-5-3.8-1.5-.7-3.8-2.1-5.2-3-2.6-1.7-6-3.7-17-9.9-3.6-2-10.8-6.1-16-9.1s-13-7.2-17.2-9.3c-6.5-3.3-8-3.7-9.3-2.6-1.7 1.4-8.3 13.9-31.5 59.5-8.4 16.5-16.8 32.8-18.7 36.3-1.9 3.4-3.2 6.9-2.9 7.7z"/></g><path d="m499.4 989.9c-.6-1.1-4.1-12.8-7-23.9-.8-3-2.1-7.3-2.8-9.5-.8-2.2-2.3-7.1-3.5-11-1.1-3.8-4.7-16-8-27-7-23.4-13.6-46.4-22.1-77-3.4-12.1-10.1-35.9-15-53-4.8-17-10.9-38.6-13.5-48-2.6-9.3-7.7-27.1-11.3-39.5-8.7-30-13.8-48-16.1-56.5-1-3.8-3.8-12.8-6.1-20-5.1-16-6-22.7-3.5-25.5 5.4-6 33.1-19.2 57.5-27.3 51.3-17.2 114.4-27.1 152.1-23.9 15.8 1.4 20.2 2.2 34.9 6.4 35.4 10 64.7 38.1 78.4 75.1 3.8 10.2 8 26.2 10 38.2 1.3 7.8 3.1 9.3 5.8 4.8 2.7-4.6 16.4-18.8 23.6-24.5 3.7-2.9 6.9-5.5 7.2-5.9 1.2-1.5 15.2-10 21.1-12.8 9.1-4.3 32.8-11.9 43.4-13.9 12.4-2.3 44.1-2.3 57.5.2 14.3 2.5 41.9 11.1 44 13.5.3.4 3 1.9 6 3.5 13 6.9 33 24.2 44.1 38.1 8.4 10.6 11.9 16 17.5 27.3 2.9 5.7 5.5 9.8 5.9 9.2 1.5-2.4-3.3-122.8-6.2-155.7-1.3-14-1.4-19.6-.6-20.4 1.8-1.8 19.5-7.7 71.8-24.1 22.2-6.9 29.1-8.8 32-8.8h2.5l-.1 59.8c-.1 32.8-.4 76.2-.8 96.4-.5 28.3-.3 36.9.6 37.2.7.3 4-3.5 7.5-8.4 14.5-20.6 40.1-55.8 53.6-73.8 13.4-17.8 14.7-19.3 17.1-18.8 2.9.7 31.4 14.7 37.6 18.5 2.2 1.3 15.9 9.2 30.4 17.4 27.4 15.4 33.1 19.1 33.1 21.2 0 1.1-17.1 17.5-27.1 25.9-1.9 1.6-5.4 4.8-8 7-7.8 7.1-19.2 17.1-23.4 20.7-2.2 1.9-4.7 4.1-5.5 4.9s-9.1 8.5-18.5 16.9c-9.3 8.5-17.9 16.2-19 17.2-1.9 1.9-1.9 1.9 1.2 5.1 1.7 1.8 7.9 9.2 13.8 16.3 5.9 7.2 11.6 14.1 12.8 15.5 2.4 2.9 31 37.7 34.7 42.4 1.4 1.7 9.7 11.9 18.5 22.7s19.2 23.5 23 28.4c3.9 4.8 9 11.1 11.3 14.1 2.4 2.9 4.1 5.8 3.8 6.3-.7 1.1-2 1.4-19.6 3.6-26.3 3.3-35.8 4.5-46 5.5-14.9 1.6-39.9 4.8-50.3 6.5-4.9.7-9.6 1.1-10.5.7-1.8-.6-2.6-1.5-8.7-10.2-12.8-18.3-24.4-34.8-27.5-39-9.6-13.2-23.5-33.1-29.1-41.8-2.3-3.5-4.4-6-4.7-5.7-.8.8-.4 36.8.8 69.6.5 15.3.7 28.5.4 29.4-.3.8-1.1 1.5-1.8 1.5-.6 0-6.2.5-12.5 1-27.4 2.5-79.3 5.2-81.5 4.4-1-.4-1.5-6.9-2-30.2-.8-39.7-1.7-61.2-2.5-61.2-.3 0-1.7 2.8-3.1 6.2-7.7 19.3-30.8 47.6-52.1 63.7-29.6 22.4-73.1 34-112.8 30.2-16.3-1.6-34.5-6.1-46.1-11.3-2.4-1.1-5.5-2.4-6.9-3-3.6-1.3-18.7-10.5-25.1-15.2-14.8-10.9-27.7-24.4-38.2-40.3-11-16.4-16.3-30.9-18.8-51.9-.7-5.4-1.5-10.2-1.9-10.6-.3-.4-4.2 2.7-8.6 6.9-16.1 15.4-36.3 26.4-69.9 38-9.5 3.3-38 10-44.8 10.6-2.6.2-3.3.7-3.1 2.3.3 2.6 8.5 36.9 17.8 74.6 5.8 23.8 7.3 31.2 6.5 32.7-.6 1.2-3.9 2.9-8.7 4.5-7.9 2.5-21.4 7.3-26.8 9.5-3.8 1.6-17.5 6.4-28.5 10.1-4.7 1.6-12.3 4.2-16.9 5.9-8.9 3.3-11.6 3.7-12.7 2zm369.9-165.3c9.4-3 23.9-14.9 29.3-24.2 8.7-14.9 10.5-32.5 5-50-10.8-33.9-51.7-48.6-81.9-29.4-2.6 1.6-5.1 3-5.5 3-1.3 0-14.2 14.1-14.2 15.5 0 .7-.4 1.5-.8 1.7-.5.2-2.2 3.5-3.7 7.3-3.6 9.1-4.5 24.5-2.1 34.8 3.5 15 12.7 27 26.9 35.5 11.9 7 16.9 8.3 30.7 7.7 6.3-.2 13.6-1.1 16.3-1.9zm-306.8-56.5c25.4-6.9 34.4-11 42.7-19.2 12.2-12.2 15.5-30.1 10.2-55.1-3.7-17.8-7.1-25.2-15.2-33.5-13.4-13.7-25-17.3-47.2-14.8-11.4 1.4-13.8 1.8-21.9 4.2-6.3 1.9-6.5-1.7 1.3 30.8 3 12.7 8.7 37.2 12.6 54.5s7.3 32.3 7.6 33.3c.7 2.1 1.3 2.1 9.9-.2z" fill="#fff" fill-rule="nonzero" transform="matrix(1.03406551 0 0 1.09568984 -55.495947 -177.719223)"/><g transform="matrix(1.03406551 0 0 1.09568984 -55.495947 -177.719223)"><path d="m1717.26 495.679c9.05.65 26.65 2.534 33.24 3.221 43.5 4.7 81.5 19.6 108.5 42.6 4.4 3.7 15.3 14.6 20.3 20.3 2.1 2.3 4.2 4.2 4.8 4.2.5 0 2.8-1.2 5.2-2.7 8.1-5.1 31.3-17.5 38.2-20.5 17.3-7.3 38.4-13.8 51.7-15.9 42.4-6.5 84.3-3.4 116.2 8.6 33.6 12.7 61.4 33 87.3 64 5.8 7 17.8 24.7 20 29.5 3.6 8.1 4.4 10.4 5.9 16.6 3.5 15 .2 33.2-8 44-6.3 8.3-10.1 10.8-42.1 27.4-7.7 4-18.3 9.6-23.5 12.5-41.4 22.8-47.1 24.7-61.5 21-13-3.4-21.6-10.4-28-22.8-7.7-14.9-15.1-20.8-26.5-20.9-10.1-.2-20 6.1-23.8 15.1-4.7 10.7-6.8 37.9-4.1 51.5 4.5 21.9 24 29.2 41 15.2 10.6-8.6 16.7-11.4 30.1-13.7 13.6-2.2 26.7 2.1 41.2 13.8 11.9 9.6 48.4 41.1 59.7 51.4 13.8 12.8 16.3 17.3 18.4 34.3 1.2 9.6-5 26.9-12.7 35.1-4.5 4.9-22.3 20.1-31.8 27.1-20.4 15.1-48 27.5-75.9 34.4-25.9 6.3-45.3 7.4-68.3 4-21.9-3.2-28.3-4.7-48.8-11.7-18.6-6.3-41.4-18.8-55.3-30.4-26.4-22-42.6-40.6-56.8-65.1-4.2-7.3-18.9-37.4-18.9-38.7 0-1.8-1.7-1.3-11.4 2.8-22 9.4-49.1 16.5-71.2 18.6-4 .4-7.6 1-8.2 1.4-1 .6-2.1 13.1-4.8 53.6-1.6 25.1-2.6 30-8 40.6-4.9 9.7-11.4 15.2-23.3 19.4-8.5 3.1-6.8 3.2-65.1-2.6-16.8-1.7-36.3-3.4-43.5-3.9-8.1-.5-14.5-1.5-16.9-2.5-5.8-2.5-13.7-11-17.7-19l-3.4-6.9-.5-23.2c-.3-12.8-.8-23.5-1.2-23.9-.3-.3-5.9 3.8-12.5 9.2-18.7 15.6-25.6 20.4-38.9 27.1-18.7 9.4-28.2 12.7-50.9 17.4-28.4 5.8-73.3.8-104.5-11.7-8.5-3.4-9.7-3.7-12.5-2.5-9.5 4-15.7 5.2-45.5 8.9-17.9 2.3-33.6 4.4-35 4.6-3.1.7-29.3 3.9-49.3 6.1-13.8 1.6-15.2 1.6-23.4-.1-11.7-2.3-15.3-4.3-25.5-14.3-5.9-5.7-8.9-8-9.2-7.1-5 14.2-8.9 19.3-18.1 23.5-6.7 3.1-12.8 4.1-29.5 4.9-7.4.3-18.7 1-25 1.6-6.3.5-20.6 1.2-31.7 1.6-28.2.8-35.1-.7-44-9.9-4.3-4.3-9.3-14.6-9.3-19-.1-5.2-1.5-5.4-7.7-1.1-21 14.7-47.4 26.6-72.8 32.9-14.1 3.4-22.8 4.5-40 5.1-16.2.5-27.9-.8-47.5-5.2-53-11.9-97.8-46.2-125.3-95.7-2.1-3.7-4.2-7-4.7-7.3s-5.7 1.9-11.7 4.8c-13 6.5-22.9 10.4-38.6 15.2-10.8 3.3-11.7 3.8-11.2 5.8 9.4 40.8 15.8 75.7 14.9 82.2-2.1 15.8-14.5 29.5-32.6 36.1-27 9.8-74.2 25.8-84.3 28.5-9.2 2.4-12.5 2.3-21.4-.7-8.8-3-13.5-6.5-18.4-13.6-4.9-7.2-7.3-14.5-20.3-60.8-2.3-8.5-5.7-20.2-7.4-26s-5.8-19.9-9.1-31.5c-3.3-11.5-7.9-27.7-10.3-36-2.4-8.2-5.6-19.5-7.1-25s-4.4-15.6-6.5-22.5c-2.2-6.9-5.7-19-7.9-27-2.1-8-7.8-28-12.6-44.5-8-27.5-10.3-35.7-12.5-44-.5-1.6-2.2-7.5-3.8-13s-4.8-16.7-7.1-25c-2.2-8.2-5.9-20.6-8.1-27.5-5.1-15.6-6-24.1-3.5-34.2 2.8-11.4 9-19.9 20.6-27.8 5.6-3.9 16-9.5 21.4-11.7 20.4-8.1 26.4-10.4 35-13.1 5.5-1.7 15.6-4.9 22.5-7.1 16.7-5.4 50.1-13.6 61.9-15.2 3.6-.5 10.2-1.6 14.6-2.3 19.8-3.6 37.4-4.9 57.9-4.3 27.8.8 46.3 4.4 69.6 13.6 25.3 10.1 50.1 29.3 67.4 52.4 5.1 6.8 16.6 28.5 16.6 31.3 0 2.5 2.2 2.6 5.8.1 14.2-9.5 36.3-19 58.2-25 16.4-4.5 49.4-6.9 64.1-4.7 37.1 5.5 58.6 12.1 80.2 24.9 13.5 7.9 12.2 7.5 12.5 3.7.4-4-2.2-38.4-4.3-57.6-1.8-16.7-1.9-23.1-.1-29.5 4.1-15.7 12.8-23.4 32.1-28.8 11.5-3.2 48.5-14.4 68.5-20.7 33.1-10.4 36.3-10.8 48.9-6 9.4 3.7 18.7 11.8 22.3 19.6 2.2 4.7 2.3 5.9 2.3 31.9 0 14.9-.4 38-.8 51.5l-.9 24.5 5.1-8.4c7.4-12.1 15.6-22.7 19.9-25.6 4.6-3 10.8-4.4 19.2-4.5 8.7 0 12.3 1.3 33.5 11.5 22.28 10.773 43.38 23.834 60.71 33.33l15.92 8.835c2.08 1.166 4.08 2.201 4.57 2.335.2 0 5.1-2.3 11-5.1 26.7-12.6 34.6-15.8 52.9-21.4 20.5-6.2 30.2-7.8 48.1-7.9 0 0 13.11.038 19.63.659 6.65.633 20.27 3.141 20.27 3.141 31.1 6.7 60.1 20.5 81.3 38.9 6.9 6 20.5 20.2 27.9 29.1 1.3 1.5 2.6 2.5 2.9 2.2.4-.3 1.1-5.2 1.8-10.8.29-2.676.48-4.98.55-6.813l2.33-24.989c.05-.066.09-.132.12-.198.2-.7.6-4.9 1-9.3.3-4.4 1-12 1.5-17 .6-4.9 1.2-11 1.5-13.5.2-2.5 1-9.6 1.6-15.7.26-2.255.46-4.405.59-6.242.31-1.633.63-3.257.98-4.87 1.25-5.823 16.71-23.196 20.43-26.188 10.9-8.7 24-14.3 39.9-16.9 19.9-3.3 44.8-4.4 69.2-3.1 10.3.533 14.06.175 21.06.679zm313.34 438.321c32.3-2.9 60.2-13.5 85.8-32.5 7.2-5.3 24.6-22.6 24.6-24.4 0-.5-2.8-3.4-6.2-6.4-14.9-12.9-26.2-22.8-44.8-38.9-11.7-10.1-22.2-18.4-23.9-19-.7-.2-3.9 2.3-7 5.5-13.9 14.7-29.9 21.9-48.1 21.8-16.6-.1-30.4-5.9-43.2-18.4-13.8-13.5-19.8-34.8-19.8-70.5 0-25.3 2.2-35.9 10.7-52.4 11.9-23 37-38 63.1-37.7 12.9.1 21.3 1.9 31.3 6.8 11.9 5.9 20.3 15 28.4 30.9 2 4 4.3 7.6 5 7.8.7.3 6-2 11.7-5.1 5.6-3.2 16.2-8.9 23.3-12.7 7.2-3.9 16.5-9 20.7-11.4 4.3-2.4 8-4.4 8.2-4.4.3 0 2.9-1.5 5.8-3.3s6.7-3.9 8.5-4.6c1.7-.7 3.9-2.1 4.9-3.2 1.6-1.8 1.4-2.4-3.9-13.1-9.7-19.5-18.3-30.8-33.6-44.4-7.3-6.5-27.9-21.4-29.5-21.4-.3 0-4.3-1.8-8.8-3.9-22.2-10.6-48.5-16.1-74.3-15.6-33 .6-63.2 8.6-89.2 23.6-14.4 8.3-19.9 12.5-32.5 24.7-10.3 10-18.2 20.1-22.7 28.9-2 4-3.8 6-4.7 5.1-.2-.3-1.1-4.2-1.9-8.7-5.8-30.5-23.7-58.3-47.4-73.6-28.9-18.7-62.5-27.1-118-29.5-41-1.7-103.1 2.9-114.2 8.6-2.2 1.1-2.7 2.2-3.3 7.1-1 9.5-5.5 102.4-6.6 136.8-2.5 81.5-3.1 99.1-4 129.5-.5 17.9-1.5 47.9-2.2 66.8-1 28-.9 34.5.1 35.1.7.5 5.2 1.1 9.9 1.5 10 .7 25.1 2.2 36.7 3.6 17.6 2.1 44.3 4.1 50 3.8l6-.3.7-10c.3-5.5 1.2-19.4 1.8-31 .6-11.5 1.3-22.8 1.5-25s.9-14.8 1.5-28c.7-13.2 1.6-24.4 2-24.9.5-.5 8.6-.3 19.1.4 28.9 2 44.1.4 66.1-7 31.8-10.7 59.1-31.1 73.2-54.7 2.1-3.5 4.1-6.3 4.6-6.3.4 0 .6 9.6.3 21.3-.8 29.7 1.4 44.2 9.6 64.5 6.3 15.5 12.9 27.1 23.2 40.8 23.1 30.5 61.5 55.1 98.9 63.4 9.1 2 23 3.9 32 4.3 3 .2 6.6.4 8 .5s7-.3 12.6-.8zm-602.1-31.2c39.9-7.1 72.5-27.1 96.2-59 4.7-6.3 15.1-24 15.3-25.9 0-.3-5.1-2.3-11.2-4.4-6.2-2.1-15.3-5.4-20.3-7.2-4.9-1.9-12.8-4.8-17.5-6.4-4.7-1.7-9.4-3.4-10.5-3.9-3.9-1.9-15.6-6-16.8-6-.6 0-3.1 2.7-5.4 6-7.5 10.5-21.5 19.7-36.3 23.6-9.8 2.6-25.5 2.3-35-.6-13-4-23-9.8-30.1-17.5-9.9-10.8-12.4-15.4-9.7-18.1 1.1-1.1 9.7-2.3 32.4-4.4 17-1.6 41.5-4 54.4-5.4s30.7-3.2 39.5-4c8.8-.9 20.1-2 25-2.6 5-.5 19.1-1.6 31.5-2.5s23.5-1.8 24.8-2.1c1.9-.4 2.2-1.1 2.2-5.2 0-6.2-3.4-26.8-6-36.2-6.3-22.6-17.5-44.2-31.4-60.5-6.5-7.6-6.9-8.1-14.1-14.2-21.7-18.4-49.4-30.6-78-34.4-18.8-2.4-59.8.8-71.1 5.6-2.2.9-6.4 2.5-9.5 3.5-19.1 6.2-43.4 22.6-57.9 39.1-7.3 8.2-17.9 23.5-21.2 30.3-1.1 2.2-2.6 5.4-3.5 6.9-2.5 4.8-8.2 21.9-9.9 29.7-2.6 12.1-3.1 41.2-.9 54.5 6.7 41.5 30.8 76.7 68.5 99.7 22.7 13.9 41.2 20.2 66.5 22.8 10.4 1 31.2.4 40-1.2zm-916.4 85.1c4.6-1.7 12.2-4.3 16.9-5.9 11-3.7 24.7-8.5 28.5-10.1 5.4-2.2 18.9-7 26.8-9.5 4.8-1.6 8.1-3.3 8.7-4.5.8-1.5-.7-8.9-6.5-32.7-9.3-37.7-17.5-72-17.8-74.6-.2-1.6.5-2.1 3.1-2.3 6.8-.6 35.3-7.3 44.8-10.6 33.6-11.6 53.8-22.6 69.9-38 4.4-4.2 8.3-7.3 8.6-6.9.4.4 1.2 5.2 1.9 10.6 2.5 21 7.8 35.5 18.8 51.9 10.5 15.9 23.4 29.4 38.2 40.3 6.4 4.7 21.5 13.9 25.1 15.2 1.4.6 4.5 1.9 6.9 3 11.6 5.2 29.8 9.7 46.1 11.3 39.7 3.8 83.2-7.8 112.8-30.2 21.3-16.1 44.4-44.4 52.1-63.7 1.4-3.4 2.8-6.2 3.1-6.2.8 0 1.7 21.5 2.5 61.2.5 23.3 1 29.8 2 30.2 2.2.8 54.1-1.9 81.5-4.4 6.3-.5 11.9-1 12.5-1 .7 0 1.5-.7 1.8-1.5.3-.9.1-14.1-.4-29.4-1.2-32.8-1.6-68.8-.8-69.6.3-.3 2.4 2.2 4.7 5.7 5.6 8.7 19.5 28.6 29.1 41.8 3.1 4.2 14.7 20.7 27.5 39 6.1 8.7 6.9 9.6 8.7 10.2.9.4 5.6 0 10.5-.7 10.4-1.7 35.4-4.9 50.3-6.5 10.2-1 19.7-2.2 46-5.5 17.6-2.2 18.9-2.5 19.6-3.6.3-.5-1.4-3.4-3.8-6.3-2.3-3-7.4-9.3-11.3-14.1-3.8-4.9-14.2-17.6-23-28.4s-17.1-21-18.5-22.7c-3.7-4.7-32.3-39.5-34.7-42.4-1.2-1.4-6.9-8.3-12.8-15.5-5.9-7.1-12.1-14.5-13.8-16.3-3.1-3.2-3.1-3.2-1.2-5.1 1.1-1 9.7-8.7 19-17.2 9.4-8.4 17.7-16.1 18.5-16.9s3.3-3 5.5-4.9c4.2-3.6 15.6-13.6 23.4-20.7 2.6-2.2 6.1-5.4 8-7 10-8.4 27.1-24.8 27.1-25.9 0-2.1-5.7-5.8-33.1-21.2-14.5-8.2-28.2-16.1-30.4-17.4-6.2-3.8-34.7-17.8-37.6-18.5-2.4-.5-3.7 1-17.1 18.8-13.5 18-39.1 53.2-53.6 73.8-3.5 4.9-6.8 8.7-7.5 8.4-.9-.3-1.1-8.9-.6-37.2.4-20.2.7-63.6.8-96.4l.1-59.8h-2.5c-2.9 0-9.8 1.9-32 8.8-52.3 16.4-70 22.3-71.8 24.1-.8.8-.7 6.4.6 20.4 2.9 32.9 7.7 153.3 6.2 155.7-.4.6-3-3.5-5.9-9.2-5.6-11.3-9.1-16.7-17.5-27.3-11.1-13.9-31.1-31.2-44.1-38.1-3-1.6-5.7-3.1-6-3.5-2.1-2.4-29.7-11-44-13.5-13.4-2.5-45.1-2.5-57.5-.2-10.6 2-34.3 9.6-43.4 13.9-5.9 2.8-19.9 11.3-21.1 12.8-.3.4-3.5 3-7.2 5.9-7.2 5.7-20.9 19.9-23.6 24.5-2.7 4.5-4.5 3-5.8-4.8-2-12-6.2-28-10-38.2-13.7-37-43-65.1-78.4-75.1-14.7-4.2-19.1-5-34.9-6.4-37.7-3.2-100.8 6.7-152.1 23.9-24.4 8.1-52.1 21.3-57.5 27.3-2.5 2.8-1.6 9.5 3.5 25.5 2.3 7.2 5.1 16.2 6.1 20 2.3 8.5 7.4 26.5 16.1 56.5 3.6 12.4 8.7 30.2 11.3 39.5 2.6 9.4 8.7 31 13.5 48 4.9 17.1 11.6 40.9 15 53 8.5 30.6 15.1 53.6 22.1 77 3.3 11 6.9 23.2 8 27 1.2 3.9 2.7 8.8 3.5 11 .7 2.2 2 6.5 2.8 9.5 2.9 11.1 6.4 22.8 7 23.9 1.1 1.7 3.8 1.3 12.7-2z"/><path d="m835.9 825.2c-8.3-2.6-20.8-10.4-27.1-17-10.8-11.3-15.3-24.5-14.5-42.2.3-8.4 1-11.9 3.2-17.5 1.5-3.8 3.2-7.1 3.7-7.3.4-.2.8-1 .8-1.7 0-1.4 12.9-15.5 14.2-15.5.4 0 2.9-1.4 5.5-3 30.2-19.2 71.1-4.5 81.9 29.4 5.5 17.5 3.7 35.1-5 50-5.4 9.3-19.9 21.2-29.3 24.2-7.6 2.4-26.6 2.7-33.4.6zm22.9-35.1c13-6.7 16.1-22.9 6.4-34.2-4.3-4.9-8.5-6.9-14.9-6.9-10.1 0-18.5 7.3-20.5 17.8-1 5.5-.9 6.3 1.5 11.3 3.4 7 4.5 8.3 9.8 11.4 5.4 3.1 12.4 3.3 17.7.6z" fill-rule="nonzero" transform="matrix(1.03994 0 0 1.03994 -34.9164 -30.8118)"/><path d="m552.6 768.3c-.3-1-3.7-16-7.6-33.3s-9.6-41.8-12.6-54.5c-7.8-32.5-7.6-28.9-1.3-30.8 8.1-2.4 10.5-2.8 21.9-4.2 22.2-2.5 33.8 1.1 47.2 14.8 8.1 8.3 11.5 15.7 15.2 33.5 7.3 34.6-1.7 55.8-28.4 66.6-6.8 2.8-29.9 9.5-32.7 9.6-.6 0-1.4-.8-1.7-1.7zm18.168-42.205c1.452.211 10.043-2.682 12.574-4.197 4.298-2.565 7.584-6.954 8.044-10.763.297-2.194-.178-8.836-.847-12.959-2.374-13.906-7.582-19.232-18.233-18.726-5.815.274-12.486 1.845-13.811 3.292-.674.749-.657 1.056.221 4.711 2.025 8.163 10.406 37.821 10.751 38.159.221.198.804.416 1.301.483z"/><path d="m1692.4 727c-1.2-.5-2.5-1.4-2.9-2-.6-1 1.9-73.3 3.3-93 .7-8.8.9-9.5 3.2-10.7 4.5-2.3 22.6-1.1 37.5 2.4 27.3 6.4 36.2 22 31.1 54.8-1.6 9.7-5.7 24.9-8.2 29.6-4.2 8.2-16 15.7-28.9 18.4-7.6 1.6-31.6 2-35.1.5zm21.48-31.703c1.33.639 10.39.469 13.26-.213 4.87-1.151 9.33-4.346 10.91-7.84.95-2.003 2.49-8.479 3.1-12.612 1.92-13.975-1.44-20.622-11.75-23.349-5.62-1.491-12.46-2.002-14.16-1.022-.86.511-.94.809-1.2 4.559-.53 8.393-1.48 39.199-1.25 39.625.15.255.64.639 1.09.852z"/><path d="m1340.8 728.6c-1.4-3.2-.6-7 4.3-19.9 4.4-11.5 12.4-19.3 27-26.5 5.7-2.8 13.1-5.6 16.4-6.3 8.1-1.7 23.5-1.5 31.8.5 20 4.7 36.4 19.4 43.2 38.7 1.2 3.2 1.1 3.9 0 4.9-.9.7-14 2.1-32.7 3.6-35.7 2.7-77.1 6.2-84 7.1-4.4.5-4.8.4-6-2.1z" fill-rule="nonzero"/></g><g fill="#f6cd12" stroke="#000"><path d="m4065.48 42.481 19.93 55.248 54.24 20.3-54.24 20.299-19.93 55.248-19.93-55.248-54.24-20.299 54.24-20.3z" stroke-width="21.23" transform="matrix(1.40204256 .1817045 -.17148377 1.48559189 -3626.121718 -566.397404)"/><path d="m4065.48 42.481 19.93 55.248 54.24 20.3-54.24 20.299-19.93 55.248-19.93-55.248-54.24-20.299 54.24-20.3z" stroke-width="14.1" transform="matrix(2.11071626 .2735485 -.2581625 2.23650391 -6633.089542 -927.686956)"/></g></g></svg>